<svg xmlns="http://www.w3.org/2000/svg" width="14.554" height="14.855"><path d="M.005 7.437C-.141 3.607 3.213.069 7.047.023 9-.144 10.9.615 12.379 1.853a33.696 33.696 0 0 1-1.882 1.942c-1.302-.79-2.869-1.393-4.39-.858-2.454.699-3.94 3.596-3.032 5.996.752 2.507 3.801 3.883 6.191 2.83 1.237-.443 2.053-1.585 2.411-2.812-1.418-.028-2.836-.01-4.254-.05-.004-.843-.008-1.684-.004-2.528 2.365-.003 4.733-.01 7.102.01.145 2.068-.16 4.28-1.504 5.94-1.84 2.368-5.24 3.064-8.006 2.134-2.936-.964-5.07-3.921-5.006-7.02Z" fill="#fff" fill-rule="evenodd" data-name="Path 23"/></svg>