<svg xmlns="http://www.w3.org/2000/svg" width="20.341" height="16.531"><path d="M20.341 1.957a8.326 8.326 0 0 1-2.397.656A4.185 4.185 0 0 0 19.78.305c-.807.478-1.7.825-2.65 1.012a4.174 4.174 0 0 0-7.112 3.807A11.847 11.847 0 0 1 1.416.764a4.173 4.173 0 0 0 1.291 5.572 4.144 4.144 0 0 1-1.89-.523v.053a4.176 4.176 0 0 0 3.348 4.092 4.159 4.159 0 0 1-1.885.072 4.178 4.178 0 0 0 3.899 2.898A8.373 8.373 0 0 1 0 14.656a11.805 11.805 0 0 0 6.397 1.875c7.676 0 11.874-6.359 11.874-11.874 0-.181-.004-.361-.012-.54a8.463 8.463 0 0 0 2.082-2.16Z" fill="#f1f2f2" fill-rule="evenodd" data-name="Path 17"/></svg>